<svg xmlns="http://www.w3.org/2000/svg" xmlns:xlink="http://www.w3.org/1999/xlink" xml:space="preserve" version="1.1" style="shape-rendering:geometricPrecision;text-rendering:geometricPrecision;image-rendering:optimizeQuality;" viewBox="0 0 1000 1250" x="0px" y="0px" fill-rule="evenodd" clip-rule="evenodd"><defs><style type="text/css">
   
    .fil0 {fill:white}
   
  </style></defs><g><path class="fil0" d="M492 807l-185 -186c-8,-10 -75,-76 -84,-85 -35,-35 -65,-62 -65,-118 0,-35 13,-64 31,-89 29,-42 81,-71 132,-71 45,0 82,22 106,43 26,23 40,42 58,73 2,3 6,9 7,12l2 0c3,-9 30,-47 36,-55 4,-4 7,-7 9,-10 14,-19 42,-38 63,-49 51,-25 119,-16 162,21 24,20 45,45 55,76 5,15 11,35 8,55 -2,21 -3,30 -13,51 -13,25 -41,49 -61,70 -44,44 -87,87 -131,130 -6,6 -10,11 -15,17 -12,12 -112,110 -115,115zm168 -573l14 0c39,1 74,17 108,43l33 35c6,9 13,18 17,28 11,22 18,46 19,70l0 13c0,14 -3,27 -7,41 -5,13 -10,22 -16,33 -14,23 -72,77 -94,99 -8,9 -16,17 -24,25 -13,14 -214,213 -218,219 -4,-3 -66,-66 -72,-71 -3,-4 -4,-7 -8,-10l-222 -223c-10,-10 -17,-16 -26,-28 -22,-31 -33,-71 -28,-110 2,-15 6,-29 11,-42 22,-49 57,-87 107,-108 28,-12 45,-13 75,-13 58,0 117,42 150,87l14 19c3,-2 6,-7 8,-10 16,-22 26,-32 46,-51l15 -11c12,-9 29,-19 45,-24 19,-7 36,-11 53,-11z"/></g><text x="0" y="1015" fill="#FFFFFF" font-size="5px" font-weight="bold" font-family="'Helvetica Neue', Helvetica, Arial-Unicode, Arial, Sans-serif">Created by LUCYPHER''</text><text x="0" y="1020" fill="#FFFFFF" font-size="5px" font-weight="bold" font-family="'Helvetica Neue', Helvetica, Arial-Unicode, Arial, Sans-serif">from the Noun Project</text></svg>